<svg width="200" height="46" fill="none" xmlns="http://www.w3.org/2000/svg"><rect width="200" height="46" rx="4" fill="#0D9488"/><rect x="3" y="3" width="40" height="40" rx="3" fill="#fff"/><g clip-path="url(#a)"><path d="M34.714 23.224c0-.983-.08-1.7-.252-2.444H23.233v4.438h6.59c-.133 1.102-.85 2.764-2.445 3.88l-.022.148 3.55 2.75.246.025c2.259-2.086 3.561-5.156 3.561-8.797Z" fill="#4285F4"/><path d="M23.234 34.918c3.228 0 5.939-1.063 7.919-2.897l-3.774-2.923c-1.01.704-2.365 1.195-4.145 1.195-3.163 0-5.847-2.086-6.804-4.969l-.14.012-3.691 2.857-.049.134c1.967 3.906 6.006 6.59 10.684 6.59Z" fill="#34A853"/><path d="M16.43 25.324a7.361 7.361 0 0 1-.398-2.365c0-.824.146-1.621.385-2.366l-.007-.158-3.737-2.903-.123.058a11.969 11.969 0 0 0-1.275 5.369c0 1.926.465 3.747 1.275 5.368l3.88-3.003Z" fill="#FBBC05"/><path d="M23.234 15.624c2.245 0 3.76.97 4.624 1.78l3.375-3.295c-2.073-1.926-4.77-3.109-8-3.109-4.677 0-8.716 2.684-10.683 6.59l3.867 3.004c.97-2.884 3.654-4.97 6.817-4.97Z" fill="#EB4335"/></g><path d="M58.005 20.09a1.454 1.454 0 0 0-.629-1.087c-.366-.259-.842-.389-1.427-.389-.412 0-.766.063-1.06.187a1.57 1.57 0 0 0-.677.506 1.231 1.231 0 0 0-.24.73c0 .227.052.424.155.59.106.168.25.31.431.427.181.114.382.21.602.288.22.078.442.143.666.197l1.023.255a7.05 7.05 0 0 1 1.188.39c.383.163.726.369 1.028.617.305.249.547.549.724.9.178.352.266.764.266 1.236 0 .64-.163 1.202-.49 1.689-.326.483-.799.86-1.417 1.134-.614.27-1.358.405-2.232.405-.848 0-1.585-.131-2.21-.394-.622-.263-1.108-.646-1.46-1.15-.348-.505-.536-1.12-.564-1.844h1.944c.029.38.146.696.352.948.206.253.474.44.804.565.334.124.707.187 1.119.187.43 0 .806-.064 1.129-.192.326-.132.582-.313.767-.544.184-.234.279-.507.282-.82a1.043 1.043 0 0 0-.25-.703 1.834 1.834 0 0 0-.687-.469 6.613 6.613 0 0 0-1.023-.34l-1.241-.32c-.899-.231-1.609-.58-2.13-1.05-.52-.472-.779-1.099-.779-1.88 0-.643.175-1.206.523-1.688.351-.483.829-.858 1.432-1.124.604-.27 1.288-.405 2.051-.405.774 0 1.453.135 2.035.405.586.266 1.046.637 1.38 1.113.333.472.506 1.015.516 1.63h-1.901ZM61.732 28v-8.182h1.928V28h-1.928Zm.97-9.343c-.306 0-.569-.101-.789-.304a.978.978 0 0 1-.33-.74c0-.291.11-.538.33-.74.22-.207.483-.31.788-.31.31 0 .572.104.789.31.22.202.33.449.33.74 0 .288-.11.534-.33.74-.217.203-.48.304-.789.304Zm6.5 12.582c-.693 0-1.288-.095-1.785-.283-.497-.184-.897-.433-1.199-.745a2.582 2.582 0 0 1-.628-1.04l1.736-.42c.079.16.192.318.341.474.15.16.35.291.602.394.256.107.577.16.964.16.547 0 1-.133 1.359-.4.358-.262.538-.695.538-1.3v-1.55h-.096c-.1.2-.245.404-.437.613-.188.21-.439.386-.751.528-.31.142-.698.213-1.167.213a3.362 3.362 0 0 1-1.71-.442c-.507-.299-.912-.742-1.214-1.332-.298-.593-.447-1.335-.447-2.227 0-.898.149-1.656.447-2.274.302-.622.708-1.092 1.22-1.412a3.135 3.135 0 0 1 1.71-.484c.48 0 .873.081 1.182.245.313.16.561.353.746.58.185.224.325.435.42.634h.107v-1.353h1.902v8.315c0 .7-.167 1.279-.5 1.737-.335.458-.79.8-1.37 1.028-.579.227-1.236.34-1.97.34Zm.015-4.869c.409 0 .757-.1 1.044-.298.288-.2.506-.485.656-.858.149-.373.223-.82.223-1.342 0-.515-.074-.966-.224-1.353-.145-.387-.362-.687-.65-.9-.283-.217-.633-.325-1.049-.325-.43 0-.788.111-1.076.335-.287.224-.504.531-.65.922a3.734 3.734 0 0 0-.218 1.32c0 .502.073.94.219 1.317.149.372.367.664.655.873.29.206.648.309 1.07.309Zm7.73-3.164V28h-1.929v-8.182h1.843v1.39h.096c.188-.458.488-.822.9-1.091.416-.27.929-.405 1.54-.405.564 0 1.056.12 1.475.362.423.241.75.591.98 1.05.235.457.35 1.013.346 1.667V28H80.27v-4.911c0-.547-.142-.975-.426-1.284-.28-.309-.67-.463-1.166-.463-.338 0-.638.074-.9.223a1.55 1.55 0 0 0-.613.634c-.146.277-.219.613-.219 1.007ZM87.878 28v-8.182h1.929V28h-1.929Zm.97-9.343c-.306 0-.568-.101-.788-.304a.979.979 0 0 1-.33-.74c0-.291.11-.538.33-.74.22-.207.482-.31.788-.31.309 0 .572.104.788.31.22.202.33.449.33.74 0 .288-.11.534-.33.74-.216.203-.48.304-.788.304Zm4.87 4.549V28H91.79v-8.182h1.843v1.39h.096c.188-.458.488-.822.9-1.091.415-.27.928-.405 1.54-.405.564 0 1.056.12 1.475.362.422.241.749.591.98 1.05.234.457.35 1.013.346 1.667V28h-1.928v-4.911c0-.547-.142-.975-.426-1.284-.281-.309-.67-.463-1.167-.463-.337 0-.637.074-.9.223-.26.146-.464.357-.613.634-.145.277-.218.613-.218 1.007ZM106.34 28l-2.311-8.182h1.965l1.438 5.753h.075l1.47-5.753h1.944l1.471 5.721h.08l1.416-5.72h1.971L113.542 28h-2.008L110 22.47h-.112L108.354 28h-2.014Zm10.866 0v-8.182h1.928V28h-1.928Zm.969-9.343c-.305 0-.568-.101-.788-.304a.98.98 0 0 1-.331-.74.97.97 0 0 1 .331-.74c.22-.207.483-.31.788-.31a1.1 1.1 0 0 1 .788.31c.221.202.331.449.331.74 0 .288-.11.534-.331.74a1.11 1.11 0 0 1-.788.304Zm7.027 1.161v1.492h-4.703v-1.492h4.703Zm-3.542-1.96h1.928v7.681c0 .26.039.458.118.597a.63.63 0 0 0 .319.277c.132.05.277.074.437.074.121 0 .231-.009.33-.026.103-.018.181-.034.235-.048l.324 1.507c-.103.036-.25.075-.442.117a3.617 3.617 0 0 1-.692.075 3.144 3.144 0 0 1-1.305-.218 2.036 2.036 0 0 1-.922-.757c-.223-.34-.333-.767-.33-1.278v-8.001Zm7.259 5.348V28h-1.928V17.09h1.885v4.119h.096a2.37 2.37 0 0 1 .89-1.093c.405-.27.92-.404 1.545-.404.568 0 1.063.119 1.486.357.422.238.749.585.98 1.044.234.458.351 1.017.351 1.678V28h-1.928v-4.911c0-.55-.142-.979-.426-1.284-.281-.309-.675-.463-1.182-.463-.341 0-.647.074-.917.223a1.562 1.562 0 0 0-.628.634c-.149.277-.224.613-.224 1.007Zm18.385-2.631a2.835 2.835 0 0 0-.367-.773 2.395 2.395 0 0 0-.554-.591 2.234 2.234 0 0 0-.735-.368 3.07 3.07 0 0 0-.906-.127 2.83 2.83 0 0 0-1.566.442c-.458.294-.819.728-1.081 1.3-.26.568-.389 1.26-.389 2.077 0 .824.129 1.521.389 2.093.259.572.619 1.007 1.081 1.305.462.295.998.442 1.609.442.554 0 1.033-.106 1.438-.32a2.26 2.26 0 0 0 .943-.905c.22-.394.33-.856.33-1.385l.447.07h-2.961V22.29h4.426v1.31c0 .934-.199 1.742-.596 2.424a4.079 4.079 0 0 1-1.641 1.576c-.696.366-1.495.55-2.397.55-1.005 0-1.887-.226-2.647-.677-.757-.455-1.348-1.1-1.774-1.934-.423-.838-.634-1.832-.634-2.983 0-.88.124-1.667.373-2.36a5.102 5.102 0 0 1 1.054-1.763 4.492 4.492 0 0 1 1.588-1.108 5.053 5.053 0 0 1 1.981-.383 5.21 5.21 0 0 1 1.689.266c.522.174.985.423 1.39.746.409.323.744.706 1.007 1.15.263.444.435.934.517 1.47h-2.014Zm7.499 7.585c-.799 0-1.492-.176-2.078-.527a3.578 3.578 0 0 1-1.363-1.476c-.32-.632-.48-1.37-.48-2.216 0-.845.16-1.585.48-2.221a3.571 3.571 0 0 1 1.363-1.481c.586-.352 1.279-.527 2.078-.527.799 0 1.491.175 2.077.527a3.543 3.543 0 0 1 1.359 1.48c.323.636.484 1.377.484 2.222s-.161 1.584-.484 2.216a3.55 3.55 0 0 1-1.359 1.476c-.586.351-1.278.527-2.077.527Zm.01-1.545c.434 0 .796-.119 1.087-.357.291-.241.508-.564.65-.97.146-.404.218-.855.218-1.352 0-.501-.072-.954-.218-1.359a2.15 2.15 0 0 0-.65-.974c-.291-.242-.653-.363-1.087-.363-.443 0-.813.121-1.107.363-.292.241-.51.566-.656.974a4.084 4.084 0 0 0-.213 1.359c0 .497.071.948.213 1.353.146.404.364.728.656.97.294.237.664.356 1.107.356Zm9.116 1.545c-.799 0-1.492-.176-2.078-.527a3.578 3.578 0 0 1-1.363-1.476c-.32-.632-.48-1.37-.48-2.216 0-.845.16-1.585.48-2.221a3.571 3.571 0 0 1 1.363-1.481c.586-.352 1.279-.527 2.078-.527.799 0 1.491.175 2.077.527a3.543 3.543 0 0 1 1.359 1.48c.323.636.484 1.377.484 2.222s-.161 1.584-.484 2.216a3.55 3.55 0 0 1-1.359 1.476c-.586.351-1.278.527-2.077.527Zm.01-1.545c.434 0 .796-.119 1.087-.357.291-.241.508-.564.65-.97.146-.404.218-.855.218-1.352 0-.501-.072-.954-.218-1.359a2.15 2.15 0 0 0-.65-.974c-.291-.242-.653-.363-1.087-.363-.443 0-.813.121-1.108.363-.291.241-.509.566-.655.974a4.084 4.084 0 0 0-.213 1.359c0 .497.071.948.213 1.353.146.404.364.728.655.97.295.237.665.356 1.108.356Zm9.105 4.624c-.692 0-1.287-.095-1.784-.283-.497-.184-.897-.433-1.199-.745a2.577 2.577 0 0 1-.628-1.04l1.736-.42c.078.16.192.318.341.474.149.16.35.291.602.394.256.107.577.16.964.16.547 0 1-.133 1.358-.4.359-.262.538-.695.538-1.3v-1.55h-.095c-.1.2-.246.404-.437.613-.188.21-.439.386-.751.528-.309.142-.698.213-1.167.213a3.366 3.366 0 0 1-1.71-.442c-.508-.299-.912-.742-1.214-1.332-.299-.593-.448-1.335-.448-2.227 0-.898.149-1.656.448-2.274.302-.622.708-1.092 1.22-1.412a3.132 3.132 0 0 1 1.709-.484c.48 0 .874.081 1.183.245.312.16.561.353.746.58.184.224.325.435.421.634h.106v-1.353h1.902v8.315c0 .7-.167 1.279-.501 1.737-.334.458-.79.8-1.369 1.028-.579.227-1.236.34-1.971.34Zm.016-4.869c.408 0 .756-.1 1.044-.298.288-.2.506-.485.655-.858.149-.373.224-.82.224-1.342 0-.515-.075-.966-.224-1.353-.145-.387-.362-.687-.65-.9-.284-.217-.633-.325-1.049-.325-.43 0-.788.111-1.076.335-.288.224-.504.531-.65.922a3.748 3.748 0 0 0-.218 1.32c0 .502.073.94.218 1.317.149.372.368.664.655.873.292.206.649.309 1.071.309Zm7.729-9.28V28h-1.928V17.09h1.928Zm5.605 11.07c-.82 0-1.529-.17-2.125-.512a3.46 3.46 0 0 1-1.369-1.46c-.32-.631-.48-1.375-.48-2.231 0-.842.16-1.58.48-2.216a3.624 3.624 0 0 1 1.353-1.491c.579-.359 1.259-.538 2.04-.538.504 0 .98.081 1.428.245.451.16.848.408 1.193.745.348.338.621.767.82 1.29.199.518.298 1.136.298 1.853v.591h-6.706v-1.3h4.858a2.082 2.082 0 0 0-.24-.985 1.738 1.738 0 0 0-.655-.687c-.277-.167-.6-.25-.969-.25-.395 0-.741.096-1.039.287a1.985 1.985 0 0 0-.698.746c-.163.306-.247.641-.25 1.007v1.134c0 .476.087.885.261 1.226.174.337.417.596.73.777.312.178.678.267 1.097.267.28 0 .534-.04.762-.117.227-.082.424-.201.591-.357.167-.157.293-.35.378-.581l1.8.202c-.113.476-.33.892-.649 1.247a3.168 3.168 0 0 1-1.215.82c-.494.192-1.058.288-1.694.288Z" fill="#fff"/><defs><clipPath id="a"><path fill="#fff" transform="translate(11 11)" d="M0 0h24v24H0z"/></clipPath></defs></svg>