<svg width="150" height="19" viewBox="0 0 150 19" fill="none" xmlns="http://www.w3.org/2000/svg">
<path d="M0.759033 11.5157H4.33735C4.61927 12.7084 5.76867 13.2289 8.08915 13.2289C10.1494 13.2289 11.1687 12.8169 11.1687 11.9928C11.1687 11.2121 10.1928 10.7566 7.39518 10.2578C4.94458 9.80241 3.25301 9.23856 2.34217 8.56627C1.43132 7.89398 0.975901 6.8747 0.975901 5.53012C0.975901 2.34217 3.01446 0.88916 7.43855 0.88916C11.7759 0.88916 13.8145 2.32049 14.2482 5.85542H10.6265C10.3879 4.66265 9.36867 4.14217 7.22168 4.14217C5.33494 4.14217 4.38072 4.53253 4.38072 5.33494C4.38072 5.70362 4.64096 6.00723 5.13976 6.24579C5.63855 6.48434 6.59277 6.72289 7.95903 6.98314C10.4964 7.48193 12.2313 8.04579 13.1639 8.71807C14.0964 9.39036 14.5735 10.4096 14.5735 11.7542C14.5735 14.9422 12.3831 16.4819 7.76385 16.4819C3.2747 16.4819 1.19277 15.0072 0.759033 11.5157ZM16.5253 9.62892V1.08434H19.9952V9.36868C19.9952 12.0578 21.1879 13.2289 23.8988 13.2289C26.6096 13.2289 27.8024 12.0578 27.8024 9.36868V1.08434H31.2723V9.62892C31.2723 14.4217 29.0386 16.4819 23.8988 16.4819C18.759 16.4819 16.5253 14.4217 16.5253 9.62892ZM37.2361 16.2651H33.7663V1.08434H41.5735C45.3687 1.08434 46.9952 2.64579 46.9952 6.28916C46.9952 9.93253 45.3687 11.494 41.5735 11.494H37.2361V16.2651ZM37.2361 4.33735V8.24097H41.3566C42.8548 8.24097 43.5253 7.65542 43.5253 6.28916C43.5253 4.92289 42.8548 4.33735 41.3566 4.33735H37.2361ZM61.706 13.0121V16.2651H48.9524V1.08434H61.7042V4.33735H52.4223V7.15663H60.6199V10.1928H52.4223V13.0121H61.706ZM67.4602 11.2771V16.2651H63.9904V1.08434H72.2313C76.0265 1.08434 77.653 2.47229 77.653 5.70362C77.653 7.54699 77.0657 8.8482 75.9181 9.58554C76.9355 10.1277 77.4361 11.1253 77.4361 12.5566V16.2651H73.9663V12.7301C73.9663 11.7108 73.359 11.2771 71.9711 11.2771H67.4602ZM67.4602 4.33735V8.0241H72.0145C73.5108 8.0241 74.1831 7.46024 74.1831 6.15904C74.1831 4.87952 73.5524 4.33735 72.0145 4.33735H67.4602Z" fill="white"/>
<path d="M99.7699 1.0843V4.33731H94.1313V16.265H90.6614V4.33731H85.0229V1.0843H99.7699ZM102.398 2.71081C103.634 1.47466 105.607 0.867432 108.34 0.867432C111.072 0.867432 113.067 1.47466 114.304 2.71081C115.54 3.94695 116.147 5.94213 116.147 8.67466C116.147 11.4072 115.54 13.3807 114.304 14.6168C113.067 15.853 111.072 16.4819 108.34 16.4819C105.607 16.4819 103.634 15.853 102.398 14.6168C101.161 13.3807 100.533 11.4072 100.533 8.67466C100.533 5.94213 101.161 3.94695 102.398 2.71081ZM105.043 5.20478C104.349 5.92044 104.002 7.09153 104.002 8.67466C104.002 10.2578 104.349 11.4289 105.043 12.1445C105.716 12.8602 106.822 13.2289 108.34 13.2289C109.858 13.2289 110.964 12.8602 111.658 12.1445C112.33 11.4289 112.677 10.2578 112.677 8.67466C112.677 7.09153 112.33 5.92044 111.658 5.20478C110.964 4.48912 109.858 4.12044 108.34 4.12044C106.822 4.12044 105.716 4.48912 105.043 5.20478ZM124.818 16.265H118.312V1.0843H124.818C130.283 1.0843 132.625 3.36141 132.625 8.67466C132.625 13.9879 130.283 16.265 124.818 16.265ZM121.782 4.33731V13.012H124.71C127.833 13.012 129.155 11.7108 129.155 8.67466C129.155 5.63852 127.833 4.33731 124.71 4.33731H121.782ZM136.222 2.71081C137.454 1.47466 139.428 0.867432 142.16 0.867432C144.893 0.867432 146.888 1.47466 148.124 2.71081C149.36 3.94695 149.967 5.94213 149.967 8.67466C149.967 11.4072 149.36 13.3807 148.124 14.6168C146.888 15.853 144.893 16.4819 142.16 16.4819C139.428 16.4819 137.454 15.853 136.218 14.6168C134.982 13.3807 134.353 11.4072 134.353 8.67466C134.353 5.94213 134.982 3.94695 136.218 2.71081H136.222ZM138.866 5.20478C138.172 5.92044 137.825 7.09153 137.825 8.67466C137.825 10.2578 138.172 11.4289 138.866 12.1445C139.538 12.8602 140.644 13.2289 142.162 13.2289C143.68 13.2289 144.786 12.8602 145.48 12.1445C146.152 11.4289 146.499 10.2578 146.499 8.67466C146.499 7.09153 146.152 5.92044 145.48 5.20478C144.786 4.48912 143.68 4.12044 142.162 4.12044C140.644 4.12044 139.538 4.48912 138.866 5.20478Z" fill="white"/>
</svg>
