<svg width="466" height="214" fill="none" xmlns="http://www.w3.org/2000/svg"><path d="M303.828 63.987c-2.981 16.914-11.887 31.786-24.493 42.399-13.741 11.565-21.696 28.591-21.696 46.551h-49.012c0-17.996-8.026-35.008-21.776-46.618-15.596-13.169-25.503-32.858-25.503-54.87 0-2.186.098-4.344.29-6.48 13.599 5.809 23.023 6.323 30.088 6.828.733 9.38 2.36 18.692 4.835 27.773 3.606-5.331 7.217-10.658 10.823-15.985a36.315 36.315 0 0 1 17.737 9.626c1.801 1.783 3.494 3.816 5.827 4.808 4.156 1.779 23.434.523 24.319.71.893.188 13.964 13.094 13.964 13.094.572-5.43-.156-11.275 1.167-16.516 10.608.724 24.836-5.019 33.43-11.32Z" fill="#FFDA85"/><path d="M219.699 177.019a2.234 2.234 0 0 1-2.23-2.126c-.304-6.277-.525-12.137-.738-17.804-1.375-36.474-2.283-60.57-21.651-99.389a2.234 2.234 0 1 1 3.998-1.995c4.817 9.654 8.613 18.621 11.606 27.414a169.709 169.709 0 0 1 6.367 24.467c2.882 15.798 3.467 31.339 4.145 49.335.213 5.655.434 11.502.737 17.756a2.233 2.233 0 0 1-2.234 2.342Zm27.407 0-.11-.003a2.233 2.233 0 0 1-2.123-2.339c.303-6.254.523-12.101.736-17.756.678-17.996 1.264-33.537 4.145-49.335a169.583 169.583 0 0 1 6.368-24.467c2.992-8.793 6.788-17.76 11.605-27.414a2.234 2.234 0 0 1 3.999 1.995c-19.369 38.819-20.277 62.915-21.651 99.389-.214 5.667-.434 11.527-.739 17.804a2.234 2.234 0 0 1-2.23 2.126Z" fill="#E8A67B"/><path d="M265.871 67.398c-2.595 0-5.701-.364-8.129-2.457a9.419 9.419 0 0 1-1.951-2.365 12.79 12.79 0 0 1-1.388.545c-2.386.776-4.678.665-6.628-.321-.987-.5-1.795-1.179-2.464-1.889-.214.213-.435.42-.663.617-2.405 2.094-5.504 3.21-8.527 3.21-1.559 0-3.098-.297-4.511-.909a12.14 12.14 0 0 1-3.78-2.597c-2.526 1.87-5.629 2.999-8.835 3-.33 0-.66-.013-.991-.037-2.857-.21-5.659-1.297-8.072-3.107a19.243 19.243 0 0 1-2.624 2.257 23.393 23.393 0 0 1-5.936 3.088 2.234 2.234 0 1 1-1.462-4.222 19.221 19.221 0 0 0 4.801-2.502 14.729 14.729 0 0 0 2.022-1.746c-1.821-2.305-3.021-5.02-3.437-7.832-.11-.747-.447-3.02.965-4.778.978-1.219 2.471-1.8 4.097-1.594 2.115.267 4.227 1.856 5.135 3.864 1.247 2.758 1.107 5.874-.405 9.013-.145.3-.301.598-.468.893 1.683 1.253 3.658 2.059 5.71 2.21 2.437.178 4.87-.642 6.82-2.075-1.165-2.018-2.03-4.25-2.759-6.404-.442-1.309-1.362-4.032.007-6.394.754-1.3 2.1-2.194 3.693-2.452 1.828-.297 3.722.236 5.068 1.425 1.906 1.684 2.824 4.43 2.52 7.534-.24 2.452-1.207 4.75-2.671 6.706.699.697 1.485 1.263 2.378 1.65 2.565 1.11 5.989.465 8.327-1.57a9.32 9.32 0 0 0 .963-.975c-1.359-2.488-1.948-4.926-1.754-7.273.176-2.122 1.621-4.23 3.436-5.011 1.36-.586 2.789-.402 3.921.504 1.712 1.37 1.651 3.592 1.631 4.322-.075 2.694-.736 5.255-1.891 7.478.632.808 1.192 1.314 1.773 1.608 1.283.65 2.862.342 4.354-.397-.142-.53-.265-1.04-.38-1.517-.319-1.33-.903-4.678.57-7.066a4.643 4.643 0 0 1 2.951-2.133c1.434-.335 2.943.06 4.141 1.085 1.402 1.2 2.189 3.06 2.056 4.857-.164 2.193-1.386 4.263-3.738 6.327l-.2.173c.306.554.669 1.032 1.113 1.415 1.17 1.008 2.965 1.43 5.817 1.366a2.234 2.234 0 1 1 .1 4.468c-.23.005-.465.008-.705.008Zm-7.568-15.348c-.07.017-.099.023-.164.129-.296.48-.417 1.706-.127 3.213.633-.755.968-1.444 1.016-2.083.045-.613-.504-1.241-.725-1.26Zm-31.227-5.247c-.091 0-.181.007-.269.022-.126.02-.43.088-.543.283-.353.609.147 2.089.361 2.721.478 1.413 1.017 2.862 1.667 4.214.505-.972.834-2.02.94-3.106.16-1.635-.225-3.037-1.031-3.749-.273-.24-.708-.385-1.125-.385Zm-19.346 1.38c-.044.102-.139.439-.013 1.293.238 1.605.82 3.133 1.657 4.496.484-1.273.767-2.916.048-4.507-.342-.755-1.307-1.296-1.692-1.282Zm37.695 1.845c-.025.084-.042.17-.049.252a6.021 6.021 0 0 0-.02.523c.03-.257.053-.515.069-.775Z" fill="#E8A67B"/><path d="M212.449 152.938h41.37a7.086 7.086 0 0 1 7.086 7.085v36.82c0 9.17-7.434 16.604-16.604 16.604h-22.334c-9.17 0-16.604-7.434-16.604-16.604v-36.819a7.086 7.086 0 0 1 7.086-7.086Z" fill="#657285"/><path d="m252.416 90.82 2.237 5.667 9.319-4.308-6.455 6.767 4.952 4.481-6.896 1.053 3.783 8.221-6.94-6.413-6.108 5.644 1.683-8.249-4.511-.883 4.459-2.501-8.12-10.619 10.36 6.807 2.237-5.666Z" fill="#FFFCEE"/><path d="m151.739 131.98-4.24 29.678h-23.923l-6.662 46.635H79.666l6.36-46.635H.628l3.634-26.649L80.272.553 112.37 12.97 46.052 131.98h44.516l11.205-51.178h33.008l-7.268 51.178h24.226Zm313.901 0-4.24 29.678h-23.923l-6.662 46.635h-37.248l6.359-46.635h-85.397l3.634-26.649L394.173.553l32.099 12.416-66.319 119.011h44.516l11.204-51.178h33.008l-7.268 51.178h24.227Z" fill="#657285"/></svg>